<svg width="8" height="8" viewBox="0 0 8 8" fill="none" xmlns="http://www.w3.org/2000/svg">
<path d="M0.645917 0.646C0.692363 0.599437 0.747538 0.562494 0.808283 0.537287C0.869028 0.512081 0.93415 0.499106 0.999917 0.499106C1.06568 0.499106 1.13081 0.512081 1.19155 0.537287C1.2523 0.562494 1.30747 0.599437 1.35392 0.646L3.99992 3.293L6.64592 0.646C6.6924 0.599512 6.74759 0.562636 6.80833 0.537477C6.86907 0.512317 6.93417 0.499368 6.99992 0.499368C7.06566 0.499368 7.13076 0.512317 7.1915 0.537477C7.25224 0.562636 7.30743 0.599512 7.35392 0.646C7.40041 0.692488 7.43728 0.747677 7.46244 0.808416C7.4876 0.869156 7.50055 0.934256 7.50055 1C7.50055 1.06574 7.4876 1.13084 7.46244 1.19158C7.43728 1.25232 7.40041 1.30751 7.35392 1.354L4.70692 4L7.35392 6.646C7.40041 6.69249 7.43728 6.74768 7.46244 6.80842C7.4876 6.86916 7.50055 6.93426 7.50055 7C7.50055 7.06574 7.4876 7.13084 7.46244 7.19158C7.43728 7.25232 7.40041 7.30751 7.35392 7.354C7.30743 7.40049 7.25224 7.43736 7.1915 7.46252C7.13076 7.48768 7.06566 7.50063 6.99992 7.50063C6.93417 7.50063 6.86907 7.48768 6.80833 7.46252C6.74759 7.43736 6.6924 7.40049 6.64592 7.354L3.99992 4.707L1.35392 7.354C1.30743 7.40049 1.25224 7.43736 1.1915 7.46252C1.13076 7.48768 1.06566 7.50063 0.999917 7.50063C0.934173 7.50063 0.869073 7.48768 0.808333 7.46252C0.747594 7.43736 0.692405 7.40049 0.645917 7.354C0.599429 7.30751 0.562553 7.25232 0.537394 7.19158C0.512234 7.13084 0.499285 7.06574 0.499285 7C0.499285 6.93426 0.512234 6.86916 0.537394 6.80842C0.562553 6.74768 0.599429 6.69249 0.645917 6.646L3.29292 4L0.645917 1.354C0.599354 1.30755 0.562411 1.25238 0.537204 1.19163C0.511998 1.13089 0.499023 1.06577 0.499023 1C0.499023 0.934233 0.511998 0.869111 0.537204 0.808366C0.562411 0.747621 0.599354 0.692446 0.645917 0.646Z" fill="#000000"/>
</svg>
