<svg width="36" height="36" viewBox="0 0 36 36" fill="none" xmlns="http://www.w3.org/2000/svg">
<path d="M2.59995 11.93C2.32306 11.93 2.05238 12.0121 1.82215 12.1659C1.59192 12.3198 1.41248 12.5384 1.30652 12.7942C1.20056 13.0501 1.17283 13.3316 1.22685 13.6031C1.28087 13.8747 1.41421 14.1242 1.61 14.3199C1.8058 14.5157 2.05525 14.6491 2.32683 14.7031C2.5984 14.7571 2.87989 14.7294 3.13571 14.6234C3.39153 14.5175 3.61018 14.338 3.76401 14.1078C3.91784 13.8776 3.99995 13.6069 3.99995 13.33C3.99995 12.9587 3.85245 12.6026 3.5899 12.3401C3.32735 12.0775 2.97125 11.93 2.59995 11.93Z" fill="#000000"/>
<path d="M33.8299 14.72C34.5976 14.72 35.2199 14.0977 35.2199 13.33C35.2199 12.5623 34.5976 11.94 33.8299 11.94C33.0623 11.94 32.4399 12.5623 32.4399 13.33C32.4399 14.0977 33.0623 14.72 33.8299 14.72Z" fill="#000000"/>
<path d="M18.2199 6.39C18.4953 6.39198 18.765 6.31215 18.9949 6.16062C19.2248 6.00909 19.4045 5.7927 19.5112 5.5389C19.618 5.28509 19.6469 5.00529 19.5944 4.73501C19.5419 4.46472 19.4104 4.21611 19.2164 4.02071C19.0224 3.82532 18.7747 3.69193 18.5048 3.63749C18.2349 3.58304 17.9549 3.60997 17.7003 3.71488C17.4458 3.81978 17.2281 3.99793 17.0749 4.22673C16.9217 4.45552 16.84 4.72466 16.8399 5C16.8399 5.36692 16.985 5.71897 17.2435 5.97936C17.502 6.23975 17.853 6.38736 18.2199 6.39ZM31.6299 16.1C30.3805 16.3872 29.164 16.8027 27.9999 17.34C26.5797 18.0214 25.2384 18.8564 23.9999 19.83C23.1225 18.7519 22.3647 17.5817 21.7399 16.34C20.7429 14.2101 19.9007 12.0111 19.2199 9.76C19.1557 9.54742 19.0226 9.36226 18.8416 9.23371C18.6605 9.10515 18.4418 9.04052 18.2199 9.05C17.9981 9.04052 17.7794 9.10515 17.5983 9.23371C17.4173 9.36226 17.2841 9.54742 17.2199 9.76C16.5409 12.0116 15.6986 14.2108 14.6999 16.34C14.0781 17.5803 13.3201 18.7475 12.4399 19.82C11.1957 18.8576 9.85522 18.0265 8.43994 17.34C7.30415 16.8099 6.11827 16.3945 4.89994 16.1C4.71906 16.0565 4.52965 16.0644 4.35299 16.1227C4.17633 16.181 4.01944 16.2874 3.89994 16.43C3.77835 16.5773 3.70148 16.7564 3.67844 16.946C3.65541 17.1356 3.68716 17.3279 3.76994 17.5C5.66694 21.8134 7.01094 26.3494 7.76994 31C7.81042 31.2348 7.9334 31.4474 8.11674 31.5996C8.30007 31.7518 8.53171 31.8335 8.76994 31.83H27.7699C28.0082 31.8335 28.2398 31.7518 28.4232 31.5996C28.6065 31.4474 28.7295 31.2348 28.7699 31C29.529 26.3494 30.8729 21.8134 32.7699 17.5C32.8527 17.3279 32.8845 17.1356 32.8614 16.946C32.8384 16.7564 32.7615 16.5773 32.6399 16.43C32.5196 16.2856 32.361 16.1781 32.1824 16.1198C32.0038 16.0614 31.8123 16.0545 31.6299 16.1V16.1ZM11.0799 28.55C10.86 28.552 10.6444 28.4886 10.4606 28.3678C10.2767 28.2471 10.1329 28.0744 10.0473 27.8718C9.96179 27.6691 9.93837 27.4456 9.98007 27.2296C10.0218 27.0137 10.1267 26.815 10.2815 26.6587C10.4363 26.5025 10.6341 26.3958 10.8497 26.3521C11.0653 26.3085 11.289 26.3299 11.4924 26.4136C11.6958 26.4973 11.8697 26.6395 11.9922 26.8223C12.1146 27.005 12.1799 27.22 12.1799 27.44C12.18 27.7327 12.0644 28.0135 11.8584 28.2214C11.6524 28.4293 11.3726 28.5474 11.0799 28.55ZM18.2299 28.55C17.955 28.5238 17.6997 28.3961 17.5139 28.1918C17.3281 27.9874 17.2252 27.7212 17.2252 27.445C17.2252 27.1688 17.3281 26.9026 17.5139 26.6982C17.6997 26.4939 17.955 26.3662 18.2299 26.34C18.5049 26.3662 18.7602 26.4939 18.946 26.6982C19.1318 26.9026 19.2347 27.1688 19.2347 27.445C19.2347 27.7212 19.1318 27.9874 18.946 28.1918C18.7602 28.3961 18.5049 28.5238 18.2299 28.55ZM25.3899 28.55C25.17 28.552 24.9544 28.4886 24.7706 28.3678C24.5867 28.2471 24.4429 28.0744 24.3573 27.8718C24.2718 27.6691 24.2484 27.4456 24.2901 27.2296C24.3318 27.0137 24.4367 26.815 24.5915 26.6587C24.7463 26.5025 24.9441 26.3958 25.1597 26.3521C25.3753 26.3085 25.599 26.3299 25.8024 26.4136C26.0058 26.4973 26.1797 26.6395 26.3022 26.8223C26.4246 27.005 26.4899 27.22 26.4899 27.44C26.49 27.7327 26.3744 28.0135 26.1684 28.2214C25.9624 28.4293 25.6826 28.5474 25.3899 28.55Z" fill="#000000"/>
</svg>
