<svg width="24" height="24" viewBox="0 0 24 24" fill="none" xmlns="http://www.w3.org/2000/svg">
<path d="M23.615 0.161001C23.7539 0.252626 23.8623 0.383568 23.9264 0.537106C23.9906 0.690644 24.0075 0.85981 23.975 1.023L23.976 1.018L20.55 21.578C20.5288 21.7034 20.4798 21.8224 20.4064 21.9263C20.333 22.0302 20.2371 22.1162 20.126 22.178L20.122 22.18C19.9983 22.2503 19.8583 22.2872 19.716 22.287H19.706C19.594 22.2845 19.4834 22.2611 19.38 22.218L19.386 22.22L12.332 19.34L8.34301 23.717C8.26887 23.805 8.1764 23.8757 8.07207 23.9243C7.96774 23.9728 7.85407 23.998 7.73901 23.998H7.71301H7.71401H7.68801C7.58962 23.9981 7.49215 23.9791 7.40101 23.942L7.40601 23.944C7.24351 23.8855 7.10403 23.7765 7.00801 23.633L7.00601 23.63C6.90975 23.4877 6.85853 23.3198 6.85901 23.148V17.093L0.539006 14.51C0.384595 14.4578 0.250193 14.359 0.15436 14.2272C0.0585267 14.0953 0.00599031 13.937 0.0040056 13.774C-0.0148958 13.6152 0.0154484 13.4545 0.0909296 13.3136C0.166411 13.1726 0.283382 13.0583 0.426006 12.986L0.430006 12.984L22.705 0.134001C22.8402 0.0410123 23.0014 -0.00650025 23.1654 -0.00164539C23.3294 0.00320947 23.4876 0.0601792 23.617 0.161001L23.615 0.160001V0.161001ZM19.037 20.226L21.997 2.517L2.80101 13.587L7.29901 15.421L18.85 6.868L12.45 17.536L19.037 20.226Z" fill="#000000"/>
</svg>
