<svg width="29" height="28" viewBox="0 0 29 28" fill="none" xmlns="http://www.w3.org/2000/svg">
<path d="M29 4H25V0H23V4H19V6H23V10H25V6H29V4ZM23 26.586L17.025 20.611C18.4651 18.8095 19.1607 16.5249 18.9688 14.2265C18.777 11.9281 17.7123 9.79047 15.9935 8.25263C14.2746 6.71479 12.0321 5.89353 9.72666 5.95754C7.42118 6.02156 5.22773 6.96599 3.59688 8.59684C1.96603 10.2277 1.0216 12.4211 0.957581 14.7266C0.893565 17.0321 1.71483 19.2746 3.25267 20.9934C4.79051 22.7123 6.92817 23.7769 9.22654 23.9688C11.5249 24.1606 13.8095 23.4651 15.611 22.025L21.586 28L23 26.586ZM3.00004 15C3.00004 13.6155 3.41058 12.2622 4.17975 11.111C4.94892 9.95986 6.04217 9.06266 7.32125 8.53284C8.60034 8.00303 10.0078 7.86441 11.3657 8.1345C12.7235 8.4046 13.9708 9.07129 14.9498 10.0503C15.9288 11.0292 16.5954 12.2765 16.8655 13.6344C17.1356 14.9922 16.997 16.3997 16.4672 17.6788C15.9374 18.9579 15.0402 20.0511 13.889 20.8203C12.7379 21.5895 11.3845 22 10 22C8.14417 21.9979 6.36492 21.2597 5.05263 19.9474C3.74033 18.6351 3.00215 16.8559 3.00004 15V15Z" fill="#000000"/>
</svg>
